<svg width="2500" height="2500" viewBox="0 0 256 256" xmlns="http://www.w3.org/2000/svg" preserveAspectRatio="xMidYMid"><path d="M254.576 142.028l-31.511-15.222 29.85-13.961c2.316-1.086 3.675-3.95 2.074-6.62l-3.102-3.591c-2.002-2.19-4.176-3.786-6.817-2.747l-22.178 8.36a2.425 2.425 0 0 1-1.513.064l-8.585-2.432a1.876 1.876 0 0 0-1.801.444l-9.183 8.717a74.585 74.585 0 0 0-13.741-31.871l13.425-.105a1.6 1.6 0 0 0 1.388-.828l4.752-8.62a2.286 2.286 0 0 1 1.109-1.001l21.968-9.367c1.349-.575 2.179-3.378 1.92-5.196l-.715-6.56c-.584-1.884-3.23-3.542-4.494-3.075l-33.045 11.518 11.236-30.98c.869-2.405-.195-5.39-3.215-6.147l-4.733-.345c-2.964-.132-5.63.275-6.763 2.878l-9.771 21.593a2.422 2.422 0 0 1-1.024 1.115l-7.79 4.35a1.876 1.876 0 0 0-.96 1.588l-.33 12.662a74.502 74.502 0 0 0-32.26-12.817l9.426-9.574a1.6 1.6 0 0 0 .397-1.567l-2.735-9.455a2.297 2.297 0 0 1 .075-1.493l8.91-22.157c.549-1.36-.846-3.93-2.316-5.032L147.38.42c-1.746-.918-4.79-.221-5.353 1.003l-15.222 31.512-13.961-29.851c-1.086-2.316-3.95-3.674-6.62-2.074l-3.591 3.103c-2.19 2.002-3.786 4.175-2.746 6.817l8.359 22.177c.183.485.205 1.015.064 1.513l-2.431 8.586a1.87 1.87 0 0 0 .444 1.8l8.716 9.183a74.588 74.588 0 0 0-31.87 13.74l-.106-13.423a1.6 1.6 0 0 0-.827-1.39l-8.62-4.751a2.293 2.293 0 0 1-1.002-1.108l-9.366-21.97c-.575-1.348-3.378-2.178-5.197-1.918l-6.56.714c-1.883.585-3.542 3.23-3.075 4.494l11.519 33.046-30.98-11.236c-2.406-.87-5.391.195-6.148 3.215l-.345 4.733c-.132 2.963.275 5.63 2.878 6.762l21.593 9.77a2.42 2.42 0 0 1 1.115 1.026l4.352 7.79c.322.577.926.942 1.587.959l12.66.33a74.5 74.5 0 0 0-12.815 32.259l-9.575-9.425a1.6 1.6 0 0 0-1.567-.397l-9.455 2.735a2.287 2.287 0 0 1-1.492-.075l-22.157-8.911c-1.361-.547-3.93.848-5.032 2.317L.42 108.62c-.918 1.745-.22 4.788 1.004 5.352l31.51 15.222-29.85 13.96c-2.316 1.087-3.674 3.95-2.074 6.62l3.103 3.592c2.002 2.189 4.176 3.786 6.817 2.747l22.178-8.36a2.425 2.425 0 0 1 1.513-.064l8.585 2.432c.636.18 1.32.01 1.8-.444l9.184-8.717a74.585 74.585 0 0 0 13.74 31.87l-13.424.106a1.6 1.6 0 0 0-1.388.828l-4.752 8.619a2.302 2.302 0 0 1-1.11 1.003l-21.967 9.366c-1.35.575-2.18 3.378-1.92 5.196l.714 6.56c.585 1.884 3.23 3.542 4.495 3.075l33.045-11.518-11.236 30.98c-.87 2.405.195 5.39 3.215 6.147l4.733.345c2.963.132 5.63-.275 6.762-2.878l9.77-21.593a2.43 2.43 0 0 1 1.026-1.115l7.79-4.351c.577-.323.942-.926.959-1.587l.33-12.662a74.497 74.497 0 0 0 32.26 12.817l-9.426 9.574a1.602 1.602 0 0 0-.396 1.567l2.735 9.455a2.297 2.297 0 0 1-.076 1.493l-8.911 22.157c-.547 1.36.848 3.93 2.318 5.032l5.143 4.133c1.745.918 4.788.22 5.353-1.003l15.22-31.512 13.963 29.85c1.086 2.317 3.949 3.675 6.62 2.075l3.59-3.103c2.189-2.002 3.787-4.176 2.747-6.817l-8.36-22.177a2.418 2.418 0 0 1-.063-1.513l2.43-8.586c.18-.636.012-1.32-.443-1.8l-8.716-9.184a74.568 74.568 0 0 0 31.87-13.741l.106 13.426c.004.578.32 1.109.827 1.388l8.62 4.752c.448.247.8.637 1.002 1.108l9.366 21.969c.575 1.349 3.378 2.179 5.197 1.919l6.559-.714c1.884-.585 3.542-3.23 3.076-4.494l-11.52-33.046 30.98 11.236c2.407.87 5.392-.195 6.149-3.215l.345-4.733c.132-2.963-.276-5.63-2.878-6.762l-21.593-9.771a2.427 2.427 0 0 1-1.116-1.025l-4.351-7.79a1.875 1.875 0 0 0-1.587-.96l-12.662-.33a74.502 74.502 0 0 0 12.817-32.258l9.575 9.425a1.6 1.6 0 0 0 1.566.397l9.456-2.735a2.287 2.287 0 0 1 1.492.075l22.157 8.91c1.36.548 3.93-.847 5.032-2.316l4.133-5.144c.919-1.745.22-4.788-1.003-5.352zm-72.841-22.386H165.8a38.507 38.507 0 0 0-6.453-14.351l11.169-11.17c5.77 7.233 9.744 15.962 11.219 25.52zm-32.92-24.277a38.452 38.452 0 0 0-14.707-5.596V73.976a54.057 54.057 0 0 1 25.969 10.127l-11.262 11.262zM146.875 128c0 10.424-8.45 18.875-18.875 18.875-10.424 0-18.875-8.451-18.875-18.875s8.45-18.875 18.875-18.875 18.875 8.45 18.875 18.875zm-27.233-53.735V90.2a38.527 38.527 0 0 0-14.35 6.453l-11.17-11.17c7.233-5.77 15.96-9.743 25.52-11.218zm-24.277 32.92a38.463 38.463 0 0 0-5.595 14.707H73.976a54.077 54.077 0 0 1 10.127-25.97l11.262 11.263zm-21.1 29.173h15.936a38.507 38.507 0 0 0 6.453 14.35l-11.17 11.17c-5.77-7.232-9.743-15.961-11.218-25.52zm32.92 24.277a38.465 38.465 0 0 0 14.707 5.596v15.793a54.053 54.053 0 0 1-25.968-10.127l11.26-11.262zm29.174 21.1V165.8a38.534 38.534 0 0 0 14.35-6.453l11.169 11.169c-7.232 5.77-15.961 9.744-25.52 11.219zm24.277-32.92a38.48 38.48 0 0 0 5.595-14.707h15.794a54.077 54.077 0 0 1-10.127 25.969l-11.262-11.262z" fill="#E16426"/></svg>