<?xml version="1.0" standalone="no"?>
<!DOCTYPE svg PUBLIC "-//W3C//DTD SVG 20010904//EN"
 "http://www.w3.org/TR/2001/REC-SVG-20010904/DTD/svg10.dtd">
<svg version="1.0" xmlns="http://www.w3.org/2000/svg"
 width="234.000000pt" height="234.000000pt" viewBox="0 0 234.000000 234.000000"
 preserveAspectRatio="xMidYMid meet">
<metadata>
Created by potrace 1.11, written by Peter Selinger 2001-2013
</metadata>
<g transform="translate(0.000000,234.000000) scale(0.100000,-0.100000)"
fill="#000000" stroke="none">
<path d="M1304 2320 c-12 -5 -29 -27 -38 -50 -9 -22 -37 -86 -63 -140 -54
-116 -44 -121 -122 55 -30 66 -55 121 -56 123 -1 2 -14 5 -28 8 -30 5 -97 -47
-97 -75 0 -9 20 -63 44 -121 l43 -106 -15 -47 -15 -48 42 -43 42 -43 -62 -17
c-63 -17 -144 -54 -191 -88 l-28 -19 0 64 0 63 -44 22 c-41 21 -46 28 -91 136
-30 72 -55 116 -65 119 -28 7 -91 -1 -106 -14 -21 -18 -18 -34 37 -182 29 -76
50 -140 47 -142 -2 -2 -64 18 -138 45 -73 28 -141 50 -150 50 -33 0 -56 -51
-46 -104 6 -29 14 -35 119 -79 108 -46 115 -50 135 -93 l22 -44 60 0 60 0 -34
-65 c-30 -55 -43 -91 -73 -194 -2 -10 -17 -2 -46 27 l-43 42 -47 -16 -46 -16
-115 47 -114 47 -31 -23 c-31 -23 -50 -62 -44 -90 3 -10 58 -41 144 -80 76
-34 139 -65 139 -68 0 -3 -56 -30 -123 -60 -67 -30 -132 -60 -144 -68 -39 -23
-24 -86 27 -117 28 -16 31 -16 141 29 l112 45 51 -15 51 -15 42 46 42 47 10
-44 c16 -62 50 -146 82 -200 l27 -46 -58 4 -58 4 -28 -51 c-15 -27 -31 -50
-37 -50 -5 0 -23 -7 -40 -15 -18 -8 -63 -28 -102 -44 -64 -27 -70 -32 -75 -63
-3 -18 -2 -45 3 -61 17 -51 33 -51 188 7 79 30 145 53 146 52 2 -1 -22 -69
-53 -150 -47 -126 -53 -150 -42 -164 20 -27 31 -32 63 -32 58 0 69 9 93 70 57
147 67 164 114 188 l45 22 -3 65 -3 64 37 -22 c67 -42 146 -74 226 -92 l29 -6
-47 -48 -46 -47 15 -46 16 -46 -44 -110 c-42 -104 -44 -112 -29 -134 23 -36
43 -48 78 -48 31 0 32 3 94 141 39 87 66 135 71 127 4 -7 33 -70 64 -140 l57
-128 38 0 c31 0 44 6 65 31 14 18 24 37 22 43 -3 6 -23 57 -46 112 l-41 101
16 47 16 46 -54 50 c-45 42 -50 50 -31 50 41 0 178 49 237 85 32 19 59 35 60
35 0 0 1 -30 1 -67 l0 -68 42 -20 c39 -19 44 -27 88 -132 33 -76 53 -113 66
-116 55 -15 128 26 113 62 -14 36 -102 271 -101 271 1 0 67 -25 147 -55 134
-51 146 -53 167 -40 21 14 26 26 26 70 0 50 -3 52 -105 95 -120 49 -123 52
-149 102 l-20 38 -68 -2 c-44 -2 -67 1 -63 7 3 6 20 33 37 60 31 49 62 119 72
160 2 11 6 27 8 35 2 8 4 22 4 30 1 8 20 -5 49 -33 l48 -47 46 15 45 16 116
-46 c113 -45 116 -46 142 -29 27 18 53 60 49 82 -1 6 -2 16 -3 21 0 4 -29 21
-63 36 -35 16 -101 46 -148 67 l-84 39 109 50 c154 70 180 85 183 109 4 26
-19 64 -53 86 -22 15 -28 15 -57 2 -18 -8 -70 -30 -115 -48 -82 -32 -83 -32
-129 -16 l-47 16 -39 -41 c-22 -23 -40 -40 -42 -38 -2 2 -9 27 -16 54 -15 58
-44 124 -77 177 -13 21 -23 40 -23 44 0 3 17 5 38 4 83 -4 87 -2 109 44 20 41
27 46 125 86 56 24 109 49 117 55 20 19 18 90 -4 115 -10 11 -24 20 -31 20
-13 0 -247 -86 -276 -101 -27 -15 -23 3 32 146 27 72 50 135 50 142 0 7 -9 21
-20 31 -19 18 -41 20 -107 13 -6 0 -32 -52 -58 -114 -45 -107 -50 -115 -91
-137 -46 -24 -47 -27 -45 -97 1 -46 -7 -48 -59 -13 -34 23 -146 67 -193 75
l-39 8 43 43 42 43 -12 53 c-14 56 -11 66 63 240 15 34 14 37 -5 62 -28 36
-69 55 -95 46z m-219 -751 c0 -41 -4 -69 -10 -69 -5 0 -33 -11 -61 -24 l-52
-24 -46 47 c-25 26 -46 50 -46 53 0 21 195 105 210 91 2 -2 5 -35 5 -74z m236
56 c47 -17 129 -62 129 -72 0 -3 -22 -28 -50 -56 -36 -36 -53 -47 -62 -40 -7
6 -34 18 -60 28 l-48 18 0 73 c0 82 -2 81 91 49z m-480 -320 c-12 -26 -21 -54
-21 -61 0 -11 -17 -14 -71 -14 l-70 0 4 29 c9 58 32 114 67 168 l15 23 48 -49
49 -48 -21 -48z m758 77 c25 -52 36 -82 46 -135 4 -16 -3 -18 -71 -15 l-75 3
-23 55 -23 55 50 52 c28 29 54 50 59 47 5 -3 21 -31 37 -62z m-397 -72 c59
-17 111 -84 112 -145 1 -80 -59 -150 -135 -160 -157 -20 -242 165 -126 273 40
38 89 48 149 32z m-373 -267 c12 -27 24 -54 29 -62 6 -10 -3 -27 -27 -54 -59
-64 -64 -64 -99 1 -33 63 -56 137 -47 152 3 6 33 10 65 10 l59 0 20 -47z m815
20 c-19 -78 -73 -193 -92 -193 -4 0 -29 22 -55 48 l-48 48 19 45 c11 24 22 51
25 60 4 13 21 17 81 18 l77 2 -7 -28z m-211 -311 c-39 -30 -150 -72 -187 -72
-20 0 -21 5 -21 66 l0 66 60 28 60 27 53 -51 c48 -47 51 -52 35 -64z m-410 87
c23 -12 43 -21 45 -20 16 9 21 -10 20 -69 l-2 -71 -30 5 c-43 7 -93 27 -144
55 l-42 25 47 48 c26 26 51 48 56 48 4 0 27 -10 50 -21z"/>
</g>
</svg>
